<?xml version="1.0" encoding="iso-8859-1"?>
<!-- Generator: Adobe Illustrator 19.0.0, SVG Export Plug-In . SVG Version: 6.00 Build 0)  -->
<svg version="1.1" id="Capa_1" xmlns="http://www.w3.org/2000/svg" xmlns:xlink="http://www.w3.org/1999/xlink" x="0px" y="0px"
	 viewBox="0 0 511.999 511.999" style="enable-background:new 0 0 511.999 511.999;" xml:space="preserve">
<g>
	<g>
		<g>
			<path d="M384.704,398.368l-0.503,0.338c-4.599,3.058-5.849,9.265-2.792,13.864c1.926,2.897,5.102,4.465,8.338,4.465
				c1.9,0,3.824-0.541,5.525-1.673l0.503-0.338c4.6-3.057,5.85-9.264,2.792-13.863C395.511,396.561,389.303,395.311,384.704,398.368
				z"/>
			<path d="M453.259,379.508l-5.888-31.297c-0.004-0.023-0.008-0.046-0.013-0.069L419.25,198.71c-0.1-0.56-0.206-1.116-0.314-1.673
				l-0.369-1.964c-0.031-0.167-0.066-0.334-0.107-0.499c-5.518-27.107-17.916-52.635-35.871-73.844
				c-15.928-18.814-35.944-33.898-58.275-44.021l4.346-16.759c0.313-0.97,0.486-2.002,0.486-3.076c0-1.621-0.385-3.152-1.07-4.507
				L308.322,6.075C306.75,2.391,303.13,0,299.124,0h-86.248c-4.006,0-7.626,2.391-9.198,6.076l-20.001,46.875
				c-0.027,0.063-0.042,0.127-0.067,0.19c-0.107,0.266-0.203,0.535-0.288,0.81c-0.029,0.098-0.061,0.195-0.088,0.294
				c-0.092,0.337-0.17,0.679-0.227,1.026c-0.004,0.024-0.01,0.05-0.014,0.075c-0.061,0.383-0.096,0.771-0.109,1.164
				c-0.002,0.065,0.002,0.131,0,0.196c-0.005,0.307,0.004,0.614,0.027,0.923c0.009,0.121,0.023,0.24,0.037,0.359
				c0.028,0.252,0.066,0.503,0.115,0.755c0.025,0.138,0.053,0.274,0.084,0.411c0.018,0.076,0.027,0.152,0.047,0.229l4.492,17.322
				c-22.33,10.125-42.348,25.208-58.274,44.022c-17.972,21.227-30.378,46.782-35.89,73.916c-0.031,0.136-0.061,0.273-0.086,0.412
				l-0.405,2.144c-0.096,0.502-0.191,1.004-0.281,1.509L58.74,379.506c-10.216,54.307,45.809,84.274,90.825,108.353
				c14.428,7.717,28.055,15.007,38.093,22.249c1.735,1.253,3.788,1.891,5.853,1.891c1.555,0,3.116-0.362,4.553-1.098
				c3.343-1.71,5.445-5.147,5.445-8.902l0.006-154.252c0-2.991-1.338-5.826-3.649-7.726c-4.396-3.614-9.693-7.439-15.3-11.489
				c-26.54-19.171-47.817-36.38-39.327-52.849l9.301-18.036l71.221,29.199l3.916,85.199c0.033,0.72,0.143,1.434,0.33,2.13
				c4.182,15.601,9.906,36.967,25.992,36.967s21.811-21.366,25.992-36.967c0.186-0.696,0.297-1.41,0.33-2.129l3.918-85.2
				l71.221-29.199l9.301,18.036c8.49,16.469-12.787,33.678-39.327,52.849c-5.606,4.05-10.903,7.875-15.3,11.489
				c-2.31,1.9-3.648,4.734-3.648,7.726l0.006,154.252c0,3.755,2.103,7.192,5.445,8.902c3.342,1.709,7.36,1.403,10.406-0.793
				c10.037-7.243,23.664-14.532,38.092-22.249C407.45,463.782,463.473,433.815,453.259,379.508z M219.481,20h73.037l11.469,26.875
				h-95.974L219.481,20z M306.202,66.875l-3.414,13.164c0,0.001,0,0.002-0.001,0.003l-11.399,43.959h-25.387v-30
				c0-5.523-4.477-10-10-10c-5.523,0-10,4.477-10,10v30h-25.388l-2.663-10.27c-0.003-0.012-0.006-0.023-0.01-0.035l-8.727-33.656
				c-0.001-0.002-0.001-0.004-0.002-0.007l-3.413-13.158H306.202z M273.584,144.001l-4.899,21.002h-25.369l-4.899-21.002H273.584z
				 M353.001,470.226c-8.581,4.59-16.89,9.034-24.511,13.497l-0.005-131.136c3.201-2.453,6.855-5.093,10.659-7.841
				c12.642-9.131,26.969-19.48,36.982-31.461c13.346-15.97,16.176-31.703,8.41-46.766l-13.501-26.183
				c-2.376-4.609-7.882-6.639-12.681-4.669l-85.604,35.096c-3.601,1.476-6.017,4.906-6.196,8.793l-4.161,90.487
				c-1.229,4.556-3.832,13.912-6.394,18.847c-2.562-4.934-5.165-14.291-6.394-18.846l-4.159-90.488
				c-0.18-3.887-2.596-7.317-6.196-8.793l-85.604-35.096c-4.799-1.969-10.305,0.06-12.681,4.669l-13.501,26.184
				c-7.766,15.061-4.936,30.795,8.41,46.765c10.013,11.98,24.34,22.33,36.981,31.461c3.804,2.748,7.458,5.388,10.659,7.841
				l-0.005,131.136c-7.621-4.463-15.93-8.907-24.511-13.497c-41.299-22.091-88.107-47.129-80.604-87.02l34.02-180.848
				c0.006-0.033,0.012-0.067,0.018-0.101c0.078-0.439,0.162-0.875,0.244-1.311l0.358-1.893c0.013-0.056,0.024-0.111,0.035-0.167
				c8.942-44.456,39.05-82.818,79.72-102.499l3.721,14.344c-9.185,5.016-17.713,11.133-25.414,18.284
				c-4.047,3.759-4.28,10.086-0.521,14.133c1.971,2.121,4.646,3.194,7.33,3.194c2.436,0,4.877-0.885,6.803-2.673
				c5.24-4.867,10.935-9.168,17.007-12.87l1.481,5.712c1.143,4.41,5.123,7.489,9.68,7.489h5.003l7.762,33.273
				c1.056,4.526,5.091,7.729,9.739,7.729h41.241c4.648,0,8.683-3.202,9.739-7.729L294.121,144h5.003c4.557,0,8.537-3.079,9.68-7.489
				l10.405-40.121c40.671,19.678,70.776,58.04,79.719,102.496c0.015,0.075,0.03,0.149,0.048,0.224l0.32,1.699
				c0.092,0.481,0.186,0.963,0.272,1.448c0.006,0.033,0.012,0.067,0.018,0.101l27.676,147.123
				c-1.519,4.469-6.911,17.442-22.07,32.333c-3.939,3.87-3.996,10.201-0.126,14.142c1.958,1.993,4.545,2.992,7.134,2.992
				c2.529,0,5.06-0.953,7.008-2.866c5.636-5.536,10.172-10.922,13.826-15.922l0.572,3.046
				C441.107,423.097,394.3,448.135,353.001,470.226z"/>
			<circle cx="159.929" cy="159.23" r="10"/>
		</g>
	</g>
</g>
<g>
</g>
<g>
</g>
<g>
</g>
<g>
</g>
<g>
</g>
<g>
</g>
<g>
</g>
<g>
</g>
<g>
</g>
<g>
</g>
<g>
</g>
<g>
</g>
<g>
</g>
<g>
</g>
<g>
</g>
</svg>
